<svg width="16" height="16" viewBox="0 0 16 16" fill="none" xmlns="http://www.w3.org/2000/svg">
  <rect width="16" height="16" rx="2" fill="white" />
  <path
    d="M1.25 10.7229C1.25 10.7229 2.07191 10.2341 3.07061 10.1824C4.72055 10.097 7.28077 11.4056 9.24362 10.3815C11.2065 9.35744 10.8082 6.8541 10.8082 6.8541M14.5 5.09707C14.5 5.09707 13.6781 5.58591 12.6794 5.63758C11.0295 5.72294 8.46923 4.41435 6.50638 5.43844C4.54353 6.46254 4.94179 8.96588 4.94179 8.96588M10.7151 1.25C10.7151 1.25 10.465 1.6198 10.2966 2.33098C10.1282 3.04215 10.2966 3.78332 10.2966 3.78332M5.10123 14.5932C5.10123 14.5932 5.35141 14.2234 5.51981 13.5122C5.6882 12.801 5.5198 12.0599 5.5198 12.0599"
    stroke="#1F1F1F" stroke-width="0.796518" stroke-linecap="round" />
</svg>
  